REM DIRINDEX 1\2,1\3,1\4,1\5\6,1\5\7,1\8
REM DIRNAME cjc115,folder01,folder02,folder03,folder04,folder05,folder06,folder07
TITLE ""
FILE "070 【070】Unit4 (0793 blockade_0804 censor).mp3" MP3
  TRACK 01 AUDIO
    TITLE "0:"
    INDEX 01 00:00:00
  TRACK 02 AUDIO
    TITLE "2:cjc115_2722"
    INDEX 01 00:00:07
  TRACK 03 AUDIO
    TITLE "0:"
    INDEX 01 00:01:36
  TRACK 04 AUDIO
    TITLE "3:cjc115_2723"
    INDEX 01 00:01:44
  TRACK 05 AUDIO
    TITLE "0:"
    INDEX 01 00:02:47
  TRACK 06 AUDIO
    TITLE "4:cjc115_2724"
    INDEX 01 00:02:61
  TRACK 07 AUDIO
    TITLE "0:"
    INDEX 01 00:07:54
  TRACK 08 AUDIO
    TITLE "2:cjc115_2725"
    INDEX 01 00:08:64
  TRACK 09 AUDIO
    TITLE "0:"
    INDEX 01 00:10:19
  TRACK 10 AUDIO
    TITLE "3:cjc115_2726"
    INDEX 01 00:10:27
  TRACK 11 AUDIO
    TITLE "0:"
    INDEX 01 00:11:66
  TRACK 12 AUDIO
    TITLE "4:cjc115_2727"
    INDEX 01 00:11:74
  TRACK 13 AUDIO
    TITLE "0:"
    INDEX 01 00:16:18
  TRACK 14 AUDIO
    TITLE "2:cjc115_2728"
    INDEX 01 00:17:25
  TRACK 15 AUDIO
    TITLE "0:"
    INDEX 01 00:18:54
  TRACK 16 AUDIO
    TITLE "3:cjc115_2729"
    INDEX 01 00:18:64
  TRACK 17 AUDIO
    TITLE "0:"
    INDEX 01 00:21:00
  TRACK 18 AUDIO
    TITLE "4:cjc115_2730"
    INDEX 01 00:21:06
  TRACK 19 AUDIO
    TITLE "0:"
    INDEX 01 00:25:01
  TRACK 20 AUDIO
    TITLE "2:cjc115_2731"
    INDEX 01 00:26:07
  TRACK 21 AUDIO
    TITLE "0:"
    INDEX 01 00:27:20
  TRACK 22 AUDIO
    TITLE "3:cjc115_2732"
    INDEX 01 00:27:32
  TRACK 23 AUDIO
    TITLE "0:"
    INDEX 01 00:29:54
  TRACK 24 AUDIO
    TITLE "4:cjc115_2733"
    INDEX 01 00:29:64
  TRACK 25 AUDIO
    TITLE "0:"
    INDEX 01 00:33:42
  TRACK 26 AUDIO
    TITLE "2:cjc115_2734"
    INDEX 01 00:34:53
  TRACK 27 AUDIO
    TITLE "0:"
    INDEX 01 00:35:74
  TRACK 28 AUDIO
    TITLE "3:cjc115_2735"
    INDEX 01 00:36:07
  TRACK 29 AUDIO
    TITLE "0:"
    INDEX 01 00:38:18
  TRACK 30 AUDIO
    TITLE "4:cjc115_2736"
    INDEX 01 00:38:26
  TRACK 31 AUDIO
    TITLE "0:"
    INDEX 01 00:42:33
  TRACK 32 AUDIO
    TITLE "2:cjc115_2737"
    INDEX 01 00:43:44
  TRACK 33 AUDIO
    TITLE "0:"
    INDEX 01 00:45:06
  TRACK 34 AUDIO
    TITLE "3:cjc115_2738"
    INDEX 01 00:45:14
  TRACK 35 AUDIO
    TITLE "0:"
    INDEX 01 00:48:42
  TRACK 36 AUDIO
    TITLE "4:cjc115_2739"
    INDEX 01 00:48:51
  TRACK 37 AUDIO
    TITLE "0:"
    INDEX 01 00:53:17
  TRACK 38 AUDIO
    TITLE "2:cjc115_2740"
    INDEX 01 00:54:25
  TRACK 39 AUDIO
    TITLE "0:"
    INDEX 01 00:55:48
  TRACK 40 AUDIO
    TITLE "3:cjc115_2741"
    INDEX 01 00:55:55
  TRACK 41 AUDIO
    TITLE "0:"
    INDEX 01 00:57:60
  TRACK 42 AUDIO
    TITLE "4:cjc115_2742"
    INDEX 01 00:57:64
  TRACK 43 AUDIO
    TITLE "0:"
    INDEX 01 01:02:30
  TRACK 44 AUDIO
    TITLE "2:cjc115_2743"
    INDEX 01 01:03:39
  TRACK 45 AUDIO
    TITLE "0:"
    INDEX 01 01:05:05
  TRACK 46 AUDIO
    TITLE "3:cjc115_2744"
    INDEX 01 01:05:15
  TRACK 47 AUDIO
    TITLE "0:"
    INDEX 01 01:06:32
  TRACK 48 AUDIO
    TITLE "4:cjc115_2745"
    INDEX 01 01:06:42
  TRACK 49 AUDIO
    TITLE "0:"
    INDEX 01 01:10:69
  TRACK 50 AUDIO
    TITLE "2:cjc115_2746"
    INDEX 01 01:12:03
  TRACK 51 AUDIO
    TITLE "0:"
    INDEX 01 01:13:08
  TRACK 52 AUDIO
    TITLE "3:cjc115_2747"
    INDEX 01 01:13:16
  TRACK 53 AUDIO
    TITLE "0:"
    INDEX 01 01:15:62
  TRACK 54 AUDIO
    TITLE "4:cjc115_2748"
    INDEX 01 01:15:72
  TRACK 55 AUDIO
    TITLE "0:"
    INDEX 01 01:20:42
  TRACK 56 AUDIO
    TITLE "2:cjc115_2749"
    INDEX 01 01:21:49
  TRACK 57 AUDIO
    TITLE "0:"
    INDEX 01 01:23:03
  TRACK 58 AUDIO
    TITLE "3:cjc115_2750"
    INDEX 01 01:23:11
  TRACK 59 AUDIO
    TITLE "0:"
    INDEX 01 01:24:47
  TRACK 60 AUDIO
    TITLE "4:cjc115_2751"
    INDEX 01 01:24:51
  TRACK 61 AUDIO
    TITLE "0:"
    INDEX 01 01:28:45
  TRACK 62 AUDIO
    TITLE "2:cjc115_2752"
    INDEX 01 01:29:52
  TRACK 63 AUDIO
    TITLE "0:"
    INDEX 01 01:30:60
  TRACK 64 AUDIO
    TITLE "3:cjc115_2753"
    INDEX 01 01:30:69
  TRACK 65 AUDIO
    TITLE "0:"
    INDEX 01 01:33:36
  TRACK 66 AUDIO
    TITLE "4:cjc115_2754"
    INDEX 01 01:33:44
  TRACK 67 AUDIO
    TITLE "0:"
    INDEX 01 01:37:56
  TRACK 68 AUDIO
    TITLE "2:cjc115_2755"
    INDEX 01 01:38:69
  TRACK 69 AUDIO
    TITLE "0:"
    INDEX 01 01:40:09
  TRACK 70 AUDIO
    TITLE "3:cjc115_2756"
    INDEX 01 01:40:19
  TRACK 71 AUDIO
    TITLE "0:"
    INDEX 01 01:41:56
  TRACK 72 AUDIO
    TITLE "4:cjc115_2757"
    INDEX 01 01:41:63
  TRACK 73 AUDIO
    TITLE "0:"
    INDEX 01 01:46:35
